<svg width="24" height="24" viewBox="0 0 24 24" fill="none" xmlns="http://www.w3.org/2000/svg">
  <path d="M2 20.9999V17.6568C2 17.2492 2 17.0453 2.0545 16.8603C2.1022 16.6963 2.1791 16.5422 2.2812 16.4051C2.3979 16.2483 2.5617 16.1261 2.8892 15.8816L14.3097 7.54518C15.0885 6.99588 15.478 6.72123 15.9092 6.62946C16.2916 6.54941 16.691 6.58255 17.0598 6.72592C17.4681 6.88541 17.8334 7.17894 18.3501 7.766C18.8721 8.36076 19.1371 8.65271 19.2834 9.05247C19.4246 9.43143 19.4512 9.83779 19.356 10.2236C19.2587 10.6236 18.9762 10.9859 18.4083 11.7105L9.71843 22.4966C9.41307 22.885 9.26038 23.0793 9.05573 23.193C8.87417 23.2926 8.66145 23.348 8.44836 23.3536C8.2152 23.3601 7.9933 23.2787 7.5495 23.1158L4.68152 22.0611C4.28558 21.9132 4.0876 21.8393 3.91966 21.694C3.77249 21.5716 3.65695 21.4091 3.5806 21.2243C3.49436 21.0121 3.49436 20.7817 3.49436 20.3209V20.9999H2Z" stroke="#000000" stroke-width="1.5" stroke-linecap="round" stroke-linejoin="round"/>
  <path d="M16.0126 4.99997L17.002 5.98943" stroke="#000000" stroke-width="1.5" stroke-linecap="round" stroke-linejoin="round"/>
</svg>
